<svg width="48" height="48" viewBox="0 0 48 48" fill="none" xmlns="http://www.w3.org/2000/svg">
<rect width="48" height="48" fill="#323238"/>
<g clip-path="url(#clip0_61385_216)">
<path d="M22.724 36C21.617 36 20.324 35.994 19.048 35.921C17.1811 35.963 15.3729 35.267 14.016 33.984C12.7328 32.6276 12.0367 30.8197 12.079 28.953C12 27.51 12 26.051 12 24.64C12 24.4267 12 24.2133 12 24C12 23.7867 12 23.5733 12 23.36C12 21.949 12 20.49 12.079 19.048C12.037 17.1811 12.733 15.3729 14.016 14.016C15.3729 12.733 17.1811 12.037 19.048 12.079C20.328 12.006 21.617 12 22.724 12H25.277C26.384 12 27.677 12.006 28.954 12.079C30.8207 12.0367 32.6286 12.7328 33.985 14.016C35.268 15.3729 35.964 17.1811 35.922 19.048C36 20.49 36 21.949 36 23.361C36 23.5743 36 23.7877 36 24.001C36 24.2143 36 24.4273 36 24.64C36 26.051 36 27.51 35.921 28.954C35.9633 30.8207 35.2672 32.6286 33.984 33.985C32.6276 35.2682 30.8197 35.9643 28.953 35.922C27.672 35.995 26.383 36.001 25.276 36.001L22.724 36Z" fill="white"/>
<path d="M29.6061 18.7886C29.8426 18.9466 30.1206 19.031 30.405 19.031L30.406 19.032C30.7873 19.0314 31.1528 18.8796 31.4223 18.6098C31.6917 18.34 31.843 17.9743 31.843 17.593C31.843 17.3086 31.7587 17.0305 31.6007 16.7941C31.4427 16.5576 31.2181 16.3733 30.9553 16.2644C30.6926 16.1556 30.4034 16.1271 30.1245 16.1826C29.8456 16.2381 29.5893 16.375 29.3882 16.5761C29.1871 16.7773 29.0502 17.0335 28.9947 17.3124C28.9392 17.5914 28.9677 17.8805 29.0765 18.1433C29.1853 18.406 29.3697 18.6306 29.6061 18.7886Z" fill="#323238"/>
<path fill-rule="evenodd" clip-rule="evenodd" d="M24.0003 30.1557C22.7828 30.1555 21.5927 29.7943 20.5805 29.1177C19.5683 28.4412 18.7794 27.4797 18.3137 26.3548C17.8479 25.2299 17.7261 23.9922 17.9637 22.7981C18.2014 21.604 18.7878 20.5072 19.6487 19.6464C20.5097 18.7856 21.6066 18.1994 22.8007 17.9619C23.9949 17.7245 25.2326 17.8464 26.3574 18.3124C27.4822 18.7783 28.4436 19.5674 29.1199 20.5797C29.7963 21.592 30.1573 22.7822 30.1573 23.9997C30.1558 25.6321 29.5066 27.1973 28.3522 28.3516C27.1979 29.5059 25.6328 30.1541 24.0003 30.1557ZM24.0003 20.0002C23.2092 20.0002 22.4358 20.2348 21.778 20.6743C21.1202 21.1139 20.6075 21.7386 20.3048 22.4695C20.002 23.2004 19.9228 24.0047 20.0771 24.7806C20.2315 25.5565 20.6124 26.2692 21.1719 26.8286C21.7313 27.3881 22.444 27.769 23.2199 27.9234C23.9958 28.0777 24.8001 27.9985 25.531 27.6957C26.2619 27.393 26.8866 26.8803 27.3262 26.2225C27.7657 25.5647 28.0003 24.7913 28.0003 24.0002C28.0003 22.9393 27.5789 21.9219 26.8287 21.1718C26.0786 20.4216 25.0612 20.0002 24.0003 20.0002Z" fill="#323238"/>
</g>
<defs>
<clipPath id="clip0_61385_216">
<rect width="24" height="24" fill="white" transform="translate(12 12)"/>
</clipPath>
</defs>
</svg>
